<svg
  width="210"
  height="35"
  viewBox="0 0 210 35"
  fill="none"
  xmlns="http://www.w3.org/2000/svg"
>
  <path
    d="M37.0387 0L35.8678 1.76948L36.5249 2.22149L36.1893 2.45238L36.5107 2.93814L37.0387 2.57492L37.5668 2.93814L37.8882 2.45238L37.5525 2.22149L38.2096 1.76948L37.0387 0Z"
    fill="#F5F5F5"
  />
  <path
    d="M40.2944 0.316965L38.8162 1.82854L39.3775 2.39917L39.0051 2.56112L39.2306 3.10013L39.8165 2.84536L40.2675 3.3039L40.6733 2.88894L40.3866 2.59745L41.1157 2.2804L40.2944 0.316965Z"
    fill="#F5F5F5"
  />
  <path
    d="M32.9618 2.2804L33.7831 0.316965L35.2613 1.82854L34.6999 2.39917L35.0724 2.56112L34.8469 3.10013L34.261 2.84536L33.81 3.3039L33.4042 2.88894L33.6909 2.59745L32.9618 2.2804Z"
    fill="#F5F5F5"
  />
  <path
    d="M30.6451 1.25641L30.2031 3.34283L30.9779 3.51346L30.7504 3.85501L31.2259 4.18417L31.5837 3.64688L32.2063 3.78399L32.3277 3.21122L31.9319 3.12406L32.3771 2.45544L30.6451 1.25641Z"
    fill="#F5F5F5"
  />
  <path
    d="M41.7004 2.45544L43.4324 1.25641L43.8744 3.34283L43.0996 3.51346L43.3271 3.85501L42.8516 4.18417L42.4938 3.64688L41.8712 3.78399L41.7498 3.21122L42.1456 3.12406L41.7004 2.45544Z"
    fill="#F5F5F5"
  />
  <path
    d="M36.4786 3.07342L36.0729 2.65846L35.6822 3.05555L35.225 2.741L34.9035 3.22677L35.2675 3.47714L34.6216 4.13382L35.9063 5.44754L36.9239 3.90967L36.1677 3.3895L36.4786 3.07342Z"
    fill="#F5F5F5"
  />
  <path
    d="M37.5988 3.07342L38.0046 2.65846L38.3953 3.05555L38.8525 2.741L39.174 3.22677L38.81 3.47714L39.4559 4.13382L38.1712 5.44754L37.1536 3.90967L37.9098 3.3895L37.5988 3.07342Z"
    fill="#F5F5F5"
  />
  <path
    d="M27.7382 2.78437L27.6914 4.91838L28.4839 4.93642L28.324 5.31569L28.8519 5.54715L29.1035 4.95053L29.7404 4.96503L29.7532 4.3792L29.3484 4.36998L29.6615 3.62752L27.7382 2.78437Z"
    fill="#F5F5F5"
  />
  <path
    d="M44.416 3.62752L46.3393 2.78437L46.3861 4.91838L45.5936 4.93642L45.7535 5.31569L45.2255 5.54715L44.9739 4.95053L44.3371 4.96503L44.3243 4.3792L44.7291 4.36998L44.416 3.62752Z"
    fill="#F5F5F5"
  />
  <path
    d="M40.7494 3.11376L40.2739 3.44292L40.5205 3.81329L39.6815 4.17814L40.3953 5.88458L41.9006 4.84249L41.3882 4.07304L41.7921 3.89742L41.5666 3.35842L41.0592 3.57904L40.7494 3.11376Z"
    fill="#F5F5F5"
  />
  <path
    d="M33.3281 3.11376L33.8036 3.44292L33.5569 3.81329L34.396 4.17814L33.6822 5.88458L32.1769 4.84249L32.6893 4.07304L32.2854 3.89742L32.5109 3.35842L33.0183 3.57904L33.3281 3.11376Z"
    fill="#F5F5F5"
  />
  <path
    d="M31.2454 4.32191L30.7175 4.09045L30.4996 4.60711L29.9604 4.48838L29.8391 5.06115L30.2682 5.15566L29.9079 6.01008L31.5795 6.74287L31.9636 4.92954L31.072 4.73318L31.2454 4.32191Z"
    fill="#F5F5F5"
  />
  <path
    d="M42.832 4.32191L43.36 4.09045L43.5779 4.60711L44.1171 4.48838L44.2384 5.06115L43.8092 5.15566L44.1696 6.01008L42.498 6.74287L42.1139 4.92954L43.0055 4.73318L42.832 4.32191Z"
    fill="#F5F5F5"
  />
  <path
    d="M25.1674 4.84563L25.5176 6.95009L26.2991 6.8149L26.2125 7.21817L26.7739 7.34357L26.9102 6.70918L27.5382 6.60055L27.442 6.02282L27.0428 6.09188L27.2125 5.30243L25.1674 4.84563Z"
    fill="#F5F5F5"
  />
  <path
    d="M46.865 5.30243L48.9101 4.84563L48.5599 6.95009L47.7784 6.8149L47.865 7.21817L47.3036 7.34357L47.1673 6.70918L46.5393 6.60055L46.6355 6.02282L47.0347 6.09188L46.865 5.30243Z"
    fill="#F5F5F5"
  />
  <path
    d="M28.8967 5.67863L28.3353 5.55323L28.2172 6.1026L27.6658 6.09005L27.6529 6.67588L28.0919 6.68587L27.8967 7.59437L29.6741 7.99138L29.7147 6.1367L28.8027 6.11593L28.8967 5.67863Z"
    fill="#F5F5F5"
  />
  <path
    d="M45.1808 5.67863L45.7422 5.55323L45.8602 6.1026L46.4117 6.09005L46.4245 6.67588L45.9856 6.68587L46.1808 7.59437L44.4034 7.99138L44.3628 6.1367L45.2748 6.11593L45.1808 5.67863Z"
    fill="#F5F5F5"
  />
  <path
    d="M23.0257 7.36568L23.7602 9.36454L24.5025 9.08099L24.4923 9.4937L25.0668 9.50851L25.0829 8.85928L25.6794 8.63143L25.4777 8.0827L25.0986 8.22754L25.1186 7.41962L23.0257 7.36568Z"
    fill="#F5F5F5"
  />
  <path
    d="M48.9589 7.41962L51.0518 7.36568L50.3173 9.36454L49.575 9.08099L49.5852 9.4937L49.0107 9.50851L48.9946 8.85928L48.3981 8.63143L48.5998 8.0827L48.9789 8.22754L48.9589 7.41962Z"
    fill="#F5F5F5"
  />
  <path
    d="M26.8422 7.46404L26.2677 7.44923L26.2537 8.01146L25.7099 8.10554L25.806 8.68326L26.2389 8.60837L26.2159 9.53812L28.0348 9.585L27.7305 7.75599L26.8311 7.91157L26.8422 7.46404Z"
    fill="#F5F5F5"
  />
  <path
    d="M47.2353 7.46404L47.8098 7.44923L47.8238 8.01146L48.3676 8.10553L48.2714 8.68326L47.8386 8.60837L47.8616 9.53812L46.0427 9.585L46.347 7.75599L47.2464 7.91157L47.2353 7.46404Z"
    fill="#F5F5F5"
  />
  <path
    d="M25.1563 9.61361L24.5894 9.70994L24.68 10.2647L24.1635 10.462L24.3651 11.0107L24.7763 10.8537L24.9262 11.7711L26.721 11.4661L26.0826 9.72889L25.2284 10.0552L25.1563 9.61361Z"
    fill="#F5F5F5"
  />
  <path
    d="M48.9212 9.61361L49.4881 9.70994L49.3975 10.2647L49.914 10.462L49.7124 11.0107L49.3012 10.8537L49.1513 11.7711L47.3565 11.4661L47.9948 9.72889L48.849 10.0552L48.9212 9.61361Z"
    fill="#F5F5F5"
  />
  <path
    d="M23.4555 9.90258L21.3905 10.2534L22.4827 12.0745L23.159 11.6528L23.2255 12.06L23.7924 11.9637L23.6877 11.3231L24.2311 10.9843L23.9313 10.4844L23.5858 10.6998L23.4555 9.90258Z"
    fill="#F5F5F5"
  />
  <path
    d="M50.4917 10.6998L50.6219 9.90258L52.687 10.2534L51.5948 12.0745L50.9185 11.6528L50.852 12.06L50.2851 11.9637L50.3898 11.3231L49.8464 10.9843L50.1462 10.4844L50.4917 10.6998Z"
    fill="#F5F5F5"
  />
  <path
    d="M23.0824 13.0743L23.3823 13.5742L23.7569 13.3406L24.0744 14.2125L25.7801 13.5668L24.8308 11.9841L24.0526 12.4693L23.8998 12.0497L23.361 12.2536L23.553 12.7809L23.0824 13.0743Z"
    fill="#F5F5F5"
  />
  <path
    d="M50.9951 13.0743L50.6952 13.5742L50.3206 13.3406L50.0031 14.2125L48.2974 13.5668L49.2467 11.9841L50.0249 12.4693L50.1777 12.0497L50.7165 12.2536L50.5245 12.7809L50.9951 13.0743Z"
    fill="#F5F5F5"
  />
  <path
    d="M22.2834 12.6616L20.3208 13.4046L21.7313 14.9819L22.3171 14.4374L22.458 14.8244L22.9968 14.6204L22.7751 14.0116L23.2458 13.5741L22.8586 13.1411L22.5593 13.4192L22.2834 12.6616Z"
    fill="#F5F5F5"
  />
  <path
    d="M51.5181 13.4192L51.7941 12.6616L53.7567 13.4046L52.3462 14.9819L51.7604 14.4374L51.6195 14.8244L51.0807 14.6204L51.3024 14.0116L50.8317 13.5741L51.2189 13.1411L51.5181 13.4192Z"
    fill="#F5F5F5"
  />
  <path
    d="M22.5058 15.8479L22.893 16.281L23.2175 15.9793L23.6911 16.7742L25.2461 15.811L24.0202 14.4401L23.3461 15.0667L23.1182 14.6841L22.627 14.9884L22.9134 15.469L22.5058 15.8479Z"
    fill="#F5F5F5"
  />
  <path
    d="M51.5717 15.8479L51.1845 16.281L50.86 15.9793L50.3864 16.7742L48.8314 15.811L50.0573 14.4401L50.7313 15.0667L50.9593 14.6841L51.4505 14.9884L51.1641 15.469L51.5717 15.8479Z"
    fill="#F5F5F5"
  />
  <path
    d="M21.6446 15.5969L19.8554 16.7051L21.5332 17.9818L22.0073 17.3341L22.2175 17.6869L22.7087 17.3827L22.378 16.8277L22.7589 16.3072L22.2983 15.9567L22.0562 16.2876L21.6446 15.5969Z"
    fill="#F5F5F5"
  />
  <path
    d="M52.0213 16.2876L52.4329 15.5969L54.2221 16.7051L52.5443 17.9818L52.0702 17.3341L51.86 17.6869L51.3688 17.3827L51.6995 16.8277L51.3185 16.3072L51.7791 15.9567L52.0213 16.2876Z"
    fill="#F5F5F5"
  />
  <path
    d="M22.4544 18.6827L22.915 19.0332L23.1776 18.6744L23.7902 19.3636L25.1383 18.1177L23.6801 17.0081L23.1346 17.7535L22.8397 17.4218L22.4139 17.8153L22.7843 18.232L22.4544 18.6827Z"
    fill="#F5F5F5"
  />
  <path
    d="M51.6231 18.6827L51.1625 19.0332L50.8999 18.6744L50.2873 19.3636L48.9391 18.1177L50.3973 17.0081L50.9429 17.7535L51.2378 17.4218L51.6636 17.8153L51.2932 18.232L51.6231 18.6827Z"
    fill="#F5F5F5"
  />
  <path
    d="M21.5622 18.6024L20.011 20.0359L21.8955 20.9657L22.2407 20.2382L22.5127 20.5441L22.9385 20.1506L22.5107 19.6694L22.7882 19.0848L22.2709 18.8296L22.0945 19.2012L21.5622 18.6024Z"
    fill="#F5F5F5"
  />
  <path
    d="M51.983 19.2012L52.5153 18.6024L54.0665 20.0359L52.182 20.9657L51.8367 20.2382L51.5648 20.5441L51.139 20.1506L51.5667 19.6694L51.2893 19.0848L51.8066 18.8296L51.983 19.2012Z"
    fill="#F5F5F5"
  />
  <path
    d="M22.9301 21.4762L23.4474 21.7315L23.6387 21.3285L24.3681 21.887L25.4607 20.4035L23.8229 19.5954L23.4255 20.4325L23.0744 20.1637L22.7293 20.6323L23.1704 20.97L22.9301 21.4762Z"
    fill="#F5F5F5"
  />
  <path
    d="M51.1474 21.4762L50.6301 21.7315L50.4388 21.3285L49.7093 21.887L48.6168 20.4035L50.2546 19.5954L50.652 20.4325L51.0031 20.1637L51.3482 20.6323L50.9071 20.97L51.1474 21.4762Z"
    fill="#F5F5F5"
  />
  <path
    d="M22.0391 21.5695L20.782 23.2764L22.805 23.8258L23.0091 23.0449L23.3329 23.2928L23.6779 22.8242L23.1686 22.4342L23.3325 21.8067L22.7772 21.6558L22.673 22.0548L22.0391 21.5695Z"
    fill="#F5F5F5"
  />
  <path
    d="M51.4045 22.0548L52.0384 21.5695L53.2955 23.2764L51.2725 23.8258L51.0684 23.0449L50.7446 23.2928L50.3995 22.8242L50.9089 22.4342L50.7449 21.8067L51.3003 21.6558L51.4045 22.0548Z"
    fill="#F5F5F5"
  />
  <path
    d="M23.9158 24.1275L24.4711 24.2783L24.5841 23.8457L25.404 24.2533L26.2015 22.5858L24.4433 22.1083L24.2085 23.007L23.8138 22.8108L23.5619 23.3375L24.0577 23.584L23.9158 24.1275Z"
    fill="#F5F5F5"
  />
  <path
    d="M50.1617 24.1275L49.6064 24.2783L49.4934 23.8457L48.6734 24.2533L47.876 22.5858L49.6342 22.1083L49.869 23.007L50.2637 22.8108L50.5156 23.3375L50.0198 23.584L50.1617 24.1275Z"
    fill="#F5F5F5"
  />
  <path
    d="M24.2291 26.4587L24.2844 25.6525L24.6484 25.8334L24.9003 25.3067L24.3278 25.0221L24.3723 24.3743L23.7989 24.3333L23.7706 24.7451L23.0582 24.3909L22.1406 26.3096L24.2291 26.4587Z"
    fill="#F5F5F5"
  />
  <path
    d="M51.9369 26.3096L49.8484 26.4587L49.793 25.6525L49.4291 25.8334L49.1772 25.3067L49.7497 25.0221L49.7052 24.3743L50.2786 24.3333L50.3068 24.7451L51.0193 24.3909L51.9369 26.3096Z"
    fill="#F5F5F5"
  />
  <path
    d="M25.3757 26.5406L25.949 26.5815L25.9797 26.135L26.8605 26.377L27.334 24.5858L25.5189 24.4561L25.4552 25.3839L25.0312 25.2674L24.8817 25.8332L25.4142 25.9796L25.3757 26.5406Z"
    fill="#F5F5F5"
  />
  <path
    d="M48.7018 26.5406L48.1285 26.5815L48.0978 26.135L47.217 26.377L46.7435 24.5858L48.5586 24.4561L48.6223 25.3839L49.0463 25.2674L49.1958 25.8332L48.6632 25.9796L48.7018 26.5406Z"
    fill="#F5F5F5"
  />
  <path
    d="M28.8172 26.331L27.0109 26.554L27.1205 27.4773L26.6826 27.4447L26.6408 28.0291L27.1909 28.0701L27.2572 28.6284L27.8277 28.558L27.775 28.1135L28.6847 28.1813L28.8172 26.331Z"
    fill="#F5F5F5"
  />
  <path
    d="M45.3927 28.1813L45.2603 26.331L47.0666 26.554L46.957 27.4773L47.3949 27.4447L47.4367 28.0291L46.8866 28.0701L46.8203 28.6284L46.2497 28.558L46.3025 28.1135L45.3927 28.1813Z"
    fill="#F5F5F5"
  />
  <path
    d="M26.1161 28.7692L26.0208 27.9669L26.4118 28.0744L26.5613 27.5086L25.9463 27.3396L25.8698 26.6948L25.2992 26.7653L25.3479 27.1751L24.5825 26.9648L24.0377 29.0258L26.1161 28.7692Z"
    fill="#F5F5F5"
  />
  <path
    d="M50.0398 29.0258L47.9614 28.7692L48.0567 27.9669L47.6657 28.0744L47.5162 27.5086L48.1312 27.3396L48.2077 26.6948L48.7783 26.7653L48.7296 27.1751L49.495 26.9648L50.0398 29.0258Z"
    fill="#F5F5F5"
  />
  <path
    d="M30.5976 27.7586L28.8653 28.326L29.1443 29.2115L28.7083 29.264L28.7757 29.8459L29.3235 29.78L29.4922 30.3154L30.0394 30.1362L29.9051 29.71L30.811 29.6009L30.5976 27.7586Z"
    fill="#F5F5F5"
  />
  <path
    d="M43.2665 29.6009L43.4799 27.7586L45.2122 28.326L44.9332 29.2115L45.3692 29.264L45.3018 29.8459L44.754 29.78L44.5853 30.3154L44.0381 30.1362L44.1724 29.71L43.2665 29.6009Z"
    fill="#F5F5F5"
  />
  <path
    d="M28.3978 30.6739L28.1554 29.9045L28.5592 29.9345L28.6011 29.3501L27.9658 29.3028L27.7709 28.6845L27.2238 28.8638L27.3476 29.2568L26.5571 29.198L26.4046 31.3268L28.3978 30.6739Z"
    fill="#F5F5F5"
  />
  <path
    d="M47.6728 31.3268L45.6796 30.6739L45.9221 29.9045L45.5183 29.9345L45.4764 29.3501L46.1117 29.3028L46.3065 28.6845L46.8537 28.8638L46.7299 29.2568L47.5204 29.198L47.6728 31.3268Z"
    fill="#F5F5F5"
  />
  <path
    d="M32.6108 28.8168L31.0151 29.7082L31.4535 30.5239L31.035 30.6595L31.2092 31.218L31.7349 31.0475L32 31.5407L32.504 31.2591L32.293 30.8665L33.1623 30.5846L32.6108 28.8168Z"
    fill="#F5F5F5"
  />
  <path
    d="M40.9152 30.5846L41.4667 28.8168L43.0624 29.7082L42.624 30.5239L43.0424 30.6595L42.8683 31.218L42.3426 31.0475L42.0775 31.5407L41.5735 31.2591L41.7845 30.8665L40.9152 30.5846Z"
    fill="#F5F5F5"
  />
  <path
    d="M34.784 29.4674L33.3827 30.6506L33.9645 31.3669L33.5788 31.5809L33.8535 32.0956L34.338 31.8268L34.6898 32.26L35.1325 31.8862L34.8524 31.5414L35.6537 31.0969L34.784 29.4674Z"
    fill="#F5F5F5"
  />
  <path
    d="M38.4238 31.0969L39.2935 29.4674L40.6948 30.6506L40.113 31.3669L40.4987 31.5809L40.224 32.0956L39.7395 31.8268L39.3877 32.26L38.945 31.8862L39.2251 31.5414L38.4238 31.0969Z"
    fill="#F5F5F5"
  />
  <path
    d="M37.0387 29.6869L35.8823 31.1192L36.5866 31.7103L36.2476 31.9948L36.6129 32.4472L37.0387 32.0898L37.4646 32.4472L37.8299 31.9948L37.4909 31.7103L38.1952 31.1192L37.0387 29.6869Z"
    fill="#F5F5F5"
  />
  <path
    d="M30.611 31.3951L30.9919 32.1039L29.1559 33.1296L28.9105 31.0098L29.6976 30.915L29.5031 30.553L30.0071 30.2714L30.3132 30.8409L30.9457 30.7648L31.0131 31.3467L30.611 31.3951Z"
    fill="#F5F5F5"
  />
  <path
    d="M43.0856 32.1039L44.9216 33.1296L45.167 31.0098L44.3798 30.915L44.5744 30.553L44.0704 30.2714L43.7643 30.8409L43.1317 30.7648L43.0644 31.3467L43.4665 31.3951L43.0856 32.1039Z"
    fill="#F5F5F5"
  />
  <path
    d="M33.299 32.385L33.8046 33.0075L32.1921 34.3689L31.5576 32.3348L32.313 32.0898L32.0547 31.7719L32.4974 31.3981L32.9036 31.8983L33.5106 31.7015L33.6848 32.2599L33.299 32.385Z"
    fill="#F5F5F5"
  />
  <path
    d="M40.2729 33.0075L41.8853 34.3689L42.5199 32.3348L41.7645 32.0898L42.0228 31.7719L41.5801 31.3981L41.1738 31.8983L40.5668 31.7015L40.3927 32.2599L40.7785 32.385L40.2729 33.0075Z"
    fill="#F5F5F5"
  />
  <path
    d="M36.1221 32.8384L36.7341 33.352L35.4035 35L34.4029 33.125L35.0991 32.7388L34.7865 32.4764L35.1518 32.024L35.6436 32.4367L36.2031 32.1263L36.4778 32.641L36.1221 32.8384Z"
    fill="#F5F5F5"
  />
  <path
    d="M37.3434 33.352L38.674 35L39.6746 33.125L38.9783 32.7388L39.291 32.4764L38.9257 32.024L38.4339 32.4367L37.8744 32.1263L37.5997 32.641L37.9554 32.8384L37.3434 33.352Z"
    fill="#F5F5F5"
  />
  <path
    d="M48.1056 17.5397C48.1056 23.7715 43.1508 28.8233 37.0387 28.8233C30.9267 28.8233 25.9718 23.7715 25.9718 17.5397C25.9718 11.308 30.9267 6.25611 37.0387 6.25611C43.1508 6.25611 48.1056 11.308 48.1056 17.5397Z"
    fill="#F5F5F5"
  />
  <path
    fillRule="evenodd"
    clipRule="evenodd"
    d="M0.5 30.8636V4.13636H9.61032C11.8348 4.13636 13.6968 4.49272 15.1965 5.20545C16.7211 5.89273 17.8708 6.88545 18.6457 8.18364C19.4205 9.48182 19.8079 11.0473 19.8079 12.88C19.8079 14.6618 19.4205 16.2145 18.6457 17.5382C17.8708 18.8364 16.7211 19.8418 15.1965 20.5545C13.6968 21.2418 11.8348 21.5855 9.61032 21.5855H6.83599V30.8636H0.5ZM6.83599 9.44364V16.2782H9.61032C10.885 16.2782 11.8848 15.9855 12.6096 15.4C13.3344 14.8145 13.6968 13.9745 13.6968 12.88C13.6968 11.76 13.3344 10.9073 12.6096 10.3218C11.8848 9.73636 10.885 9.44364 9.61032 9.44364H6.83599Z"
    fill="#F5F5F5"
  />
  <path d="M54.6495 30.8636V4.13636H61.098V30.8636H54.6495Z" fill="#F5F5F5" />
  <path
    d="M76.4437 9.90182H66.0212V4.13636H86.6037L74.1942 25.3273H85.254V30.8636H64.2216L76.4437 9.90182Z"
    fill="#F5F5F5"
  />
  <path
    fillRule="evenodd"
    clipRule="evenodd"
    d="M87.5526 23.1891C86.8777 21.4582 86.5403 19.5618 86.5403 17.5C86.5403 15.4382 86.8902 13.5545 87.5901 11.8491C88.3149 10.1436 89.3146 8.66727 90.5893 7.42C91.864 6.17273 93.3637 5.21818 95.0883 4.55636C96.8128 3.86909 98.6749 3.52545 100.674 3.52545C102.699 3.52545 104.561 3.86909 106.261 4.55636C107.985 5.21818 109.485 6.17273 110.759 7.42C112.034 8.66727 113.021 10.1436 113.721 11.8491C114.421 13.5545 114.771 15.4382 114.771 17.5C114.771 19.5618 114.421 21.4582 113.721 23.1891C113.046 24.92 112.072 26.4218 110.797 27.6945C109.547 28.9673 108.06 29.96 106.336 30.6727C104.611 31.36 102.724 31.7036 100.674 31.7036C98.5999 31.7036 96.7004 31.36 94.9758 30.6727C93.2512 29.96 91.7515 28.9673 90.4769 27.6945C89.2272 26.4218 88.2524 24.92 87.5526 23.1891ZM94.151 13.3382C93.5511 14.5345 93.2512 15.9218 93.2512 17.5C93.2512 19.0782 93.5511 20.4782 94.151 21.7C94.7758 22.8964 95.6381 23.8382 96.7379 24.5255C97.8626 25.2127 99.1748 25.5564 100.674 25.5564C102.149 25.5564 103.436 25.2127 104.536 24.5255C105.661 23.8382 106.523 22.8964 107.123 21.7C107.748 20.4782 108.06 19.0782 108.06 17.5C108.06 15.9218 107.76 14.5345 107.16 13.3382C106.56 12.1164 105.711 11.1618 104.611 10.4745C103.511 9.78727 102.199 9.44364 100.674 9.44364C99.1748 9.44364 97.8626 9.78727 96.7379 10.4745C95.6381 11.1618 94.7758 12.1164 94.151 13.3382Z"
    fill="#F5F5F5"
  />
  <path
    d="M136.939 19.18V4.13636H143.05V32.2L124.905 15.82V30.8636H118.831V2.8L136.939 19.18Z"
    fill="#F5F5F5"
  />
  <path
    d="M159.837 30.8636V4.13636H166.398V14.6801L175.321 4.13636H182.744L172.096 16.66L183.306 30.8636H175.62L166.398 19.1784V30.8636H159.837Z"
    fill="#F5F5F5"
  />
  <path
    d="M204.167 21.2036H197.193V16.24H210.465C210.59 18.3782 210.378 20.3764 209.828 22.2345C209.278 24.0927 208.428 25.7345 207.279 27.16C206.129 28.5855 204.692 29.7055 202.967 30.52C201.242 31.3091 199.268 31.7036 197.043 31.7036C194.944 31.7036 193.019 31.3727 191.27 30.7109C189.52 30.0236 188.008 29.0564 186.733 27.8091C185.459 26.5364 184.459 25.0345 183.734 23.3036C183.034 21.5473 182.684 19.6127 182.684 17.5C182.684 15.3873 183.047 13.4782 183.772 11.7727C184.496 10.0418 185.521 8.56545 186.846 7.34364C188.171 6.12182 189.72 5.18 191.495 4.51818C193.269 3.85636 195.194 3.52545 197.268 3.52545C199.118 3.52545 200.78 3.79273 202.255 4.32727C203.729 4.86182 205.029 5.61273 206.154 6.58C207.304 7.52182 208.291 8.61636 209.116 9.86364L203.492 12.8418C202.892 11.7727 202.08 10.8945 201.055 10.2073C200.055 9.49455 198.793 9.13818 197.268 9.13818C195.819 9.13818 194.482 9.46909 193.257 10.1309C192.057 10.7927 191.095 11.7473 190.37 12.9945C189.67 14.2164 189.32 15.7182 189.32 17.5C189.32 19.2564 189.658 20.7836 190.333 22.0818C191.032 23.3545 191.97 24.3473 193.144 25.06C194.344 25.7473 195.719 26.0909 197.268 26.0909C198.218 26.0909 199.08 25.9764 199.855 25.7473C200.63 25.4927 201.292 25.1491 201.842 24.7164C202.392 24.2582 202.855 23.7364 203.229 23.1509C203.629 22.54 203.942 21.8909 204.167 21.2036Z"
    fill="#F5F5F5"
  />
</svg>
